# AST/ASF file generated using VICON BodyLanguage
# -----------------------------------------------
:version 1.10
:name VICON
:units
  mass 1.0
  length 0.45
  angle deg
:documentation
   .ast/.asf automatically generated from VICON data using
   VICON BodyBuilder and BodyLanguage model FoxedUp or BRILLIANT.MOD
:root
   order TX TY TZ RX RY RZ
   axis XYZ
   position 0 0 0  
   orientation 0 0 0 
:bonedata
  begin
     id 1 
     name lhipjoint
     direction 0.710188 -0.616876 0.339259 
     length 2.5669 
     axis 0 0 0  XYZ
  end
  begin
     id 2 
     name lfemur
     direction 0.34202 -0.939693 0  
     length 7.12796  
     axis 0 0 20  XYZ
    dof rx ry rz
    limits (-160.0 20.0)
           (-70.0 70.0)
           (-60.0 70.0)
  end
  begin
     id 3 
     name ltibia
     direction 0.34202 -0.939693 0   
     length 7.58108   
     axis 0 0 20   XYZ
    dof rx
    limits (-10.0 170.0)
  end
  begin
     id 4 
     name lfoot
     direction 0.0669471 -0.183936 0.980656   
     length 2.17365   
     axis -90 7.62852e-016 20   XYZ
    dof rx rz
    limits (-45.0 90.0)
           (-70.0 20.0)
  end
  begin
     id 5 
     name ltoes
     direction 1.53508e-011 -4.21705e-011 1   
     length 1.09427   
     axis -90 7.62852e-016 20   XYZ
    dof rx
    limits (-90.0 20.0)
  end
  begin
     id 6 
     name rhipjoint
     direction -0.700191 -0.625589 0.34405   
     length 2.53115  
     axis 0 0 0  XYZ 
  end
  begin
     id 7 
     name rfemur
     direction -0.34202 -0.939693 0   
     length 7.33006   
     axis 0 0 -20   XYZ
    dof rx ry rz
    limits (-160.0 20.0)
           (-70.0 70.0)
           (-70.0 60.0)
  end
  begin
     id 8 
     name rtibia
     direction -0.34202 -0.939693 0   
     length 7.64926   
     axis 0 0 -20   XYZ
    dof rx
    limits (-10.0 170.0)
 end
 begin
     id 9 
     name rfoot
     direction -0.0688927 -0.189281 0.979503   
     length 2.20493  
     axis -90 -7.62852e-016 -20   XYZ
    dof rx rz
    limits (-45.0 90.0)
           (-20.0 70.0)
  end
  begin
     id 10 
     name rtoes
     direction -1.53567e-011 -4.21933e-011 1   
     length 1.10919   
     axis -90 -7.62852e-016 -20   XYZ
    dof rx
    limits (-90.0 20.0)
  end
  begin
     id 11 
     name lowerback
     direction -0.0167868 0.989873 -0.140959   
     length 2.14596   
     axis 0 0 0   XYZ
    dof rx ry rz
    limits (-20.0 45.0)
           (-30.0 30.0)
           (-30.0 30.0)
  end
  begin
     id 12 
     name upperback
     direction 0.0129109 0.998033 0.0613525   
     length 2.10457   
     axis 0 0 0   XYZ
    dof rx ry rz
    limits (-20.0 45.0)
           (-30.0 30.0)
           (-30.0 30.0)
  end
  begin
     id 13 
     name thorax
     direction 0.0177047 0.991119 0.131797   
     length 2.17652   
     axis 0 0 0   XYZ
    dof rx ry rz
    limits (-20.0 45.0)
           (-30.0 30.0)
           (-30.0 30.0)
  end
  begin
     id 14 
     name lowerneck
     direction -0.0336893 0.997548 0.0613464   
     length 1.8912   
     axis 0 0 0   XYZ
    dof rx ry rz
    limits (-20.0 45.0)
           (-30.0 30.0)
           (-30.0 30.0)
  end
  begin
     id 15 
     name upperneck
     direction 0.0435909 0.997179 -0.0611028   
     length 1.8829   
     axis 0 0 0   XYZ
    dof rx ry rz
    limits (-20.0 45.0)
           (-30.0 30.0)
           (-30.0 30.0)
  end
  begin
     id 16
     name head
     direction 0.0175076 0.999444 -0.0283782  
     length 1.93197  
     axis 0 0 0   XYZ
    dof rx ry rz
    limits (-20.0 45.0)
           (-30.0 30.0)
           (-30.0 30.0)
  end
  begin
     id 17 
     name lclavicle
     direction 0.919164 0.389875 0.0559876  
     length 3.60004  
     axis 0 0 0   XYZ
    dof ry rz
    limits (-20.0 10.0)
           (0.0 20.0)
  end
  begin
     id 18 
     name lhumerus
     direction 1 -4.48958e-011 6.89191e-027   
     length 5.43301   
     axis 180 -30 -90   XYZ
    dof rx ry rz
    limits (-60.0 90.0)
           (-90.0 90.0)
           (-90.0 90.0)
  end
  begin
     id 19
     name lradius
     direction 1 -4.4897e-011 3.24727e-027   
     length 3.15936   
     axis 180 -30 -90   XYZ
    dof rx
    limits (-10.0 170.0)
  end
  begin
     id 20
     name lwrist
     direction 1 -4.4897e-011 9.00228e-027   
     length 1.57968   
     axis -6.29373e-015 90 90   XYZ
    dof ry
    limits (-180.0 0.0)
 end
  begin
     id 21 
     name lhand
     direction 1 -4.48968e-011 1.80042e-026   
     length 0.712827   
     axis -1.14882e-014 90 90   XYZ
    dof rx rz
    limits (-90.0 90.0)
           (-45.0 45.0)
  end
  begin
     id 22 
     name lfingers
     direction 1 -4.49019e-011 3.60267e-026   
     length 0.574699   
     axis -2.29769e-014 90 90   XYZ
    dof rx
    limits (0.0 90.0)
  end
  begin
     id 23
     name lthumb
     direction 0.707107 -6.3498e-011 0.707107   
     length 0.825157   
     axis -90 45 5.37419e-014   XYZ
    dof rx rz
    limits (-45.0 45.0)
           (-45.0 45.0)
  end
  begin
     id 24 
     name rclavicle
     direction -0.890334 0.455305 -0.00132111   
     length 3.51494  
     axis 0 0 0   XYZ 
    dof ry rz
    limits (-10.0 20.0)
           (-20.0 0.0)
  end
  begin
     id 25 
     name rhumerus
     direction -1 -4.48967e-011 5.07175e-028  
     length 5.34194   
     axis 180 30 90   XYZ
    dof rx ry rz
    limits (-90.0 60.0)
           (-90.0 90.0)
           (-90.0 90.0)
  end
  begin
     id 26 
     name rradius
     direction -1 -4.48955e-011 3.30467e-027   
     length 3.19351   
     axis 180 30 90   XYZ
    dof rx
    limits (-10.0 170.0)
  end
  begin
     id 27 
     name rwrist
     direction -1 -4.48968e-011 9.00208e-027   
     length 1.59676   
     axis -6.29373e-015 -90 -90   XYZ
    dof ry
    limits (-180.0 0.0)
  end
  begin
     id 28
     name rhand
     direction -1 -4.49e-011 1.80099e-026   
     length 0.743862   
     axis -1.14882e-014 -90 -90   XYZ
    dof rx rz
    limits (-90.0 90.0)
           (-45.0 45.0)
  end
  begin
     id 29
     name rfingers
     direction -1 -4.49009e-011 3.6023e-026   
     length 0.599721   
     axis -2.29769e-014 -90 -90   XYZ
    dof rx
    limits (0.0 90.0)
  end
  begin
     id 30
     name rthumb
     direction -0.707107 -6.35025e-011 0.707107   
     length 0.861083   
     axis -90 -45 -5.37419e-014   XYZ
    dof rx rz
    limits (-45.0 45.0)
           (-45.0 45.0)
  end
:hierarchy
  begin
    root lhipjoint rhipjoint lowerback
    lhipjoint lfemur
    lfemur ltibia
    ltibia lfoot
    lfoot ltoes
    rhipjoint rfemur
    rfemur rtibia
    rtibia rfoot
    rfoot rtoes
    lowerback upperback
    upperback thorax
    thorax lowerneck lclavicle rclavicle
    lowerneck upperneck
    upperneck head
    lclavicle lhumerus
    lhumerus lradius
    lradius lwrist
    lwrist lhand lthumb
    lhand lfingers
    rclavicle rhumerus
    rhumerus rradius
    rradius rwrist
    rwrist rhand rthumb
    rhand rfingers
  end

#!OML:ASF H:\Martial Arts Walks\Project 1\Capture day 1\Session 1\male.ASF
:FULLY-SPECIFIED
:DEGREES
1464
root -5.48452 14.7014 -11.4785 178.913 -19.7468 178.913
lowerback 20.5494 4.24363 -8.18647
upperback 0.912894 3.59859 1.22503
thorax -11.1575 2.0577 4.97171
lowerneck -4.53687 -8.30262 -10.8451
upperneck 5.60247 -11.1277 9.98219
head 3.57501 -5.43789 4.18598
rclavicle 6.88292e-015 -1.42131e-014
rhumerus 47.2724 12.54 -38.7446
rradius 39.8256
rwrist -12.6295
rhand 1.31523 -49.1581
rfingers 7.12502
rthumb 26.8495 -77.2717
lclavicle 6.88292e-015 -1.42131e-014
lhumerus -51.4217 -19.7235 103.275
lradius 116.93
lwrist -46.0327
lhand 62.3875 8.41173
lfingers 7.12502
lthumb 74.9441 -752.691
rfemur -73.4984 -13.3912 15.1983
rtibia 71.2948
rfoot -3.15277 17.5297
rtoes -18.2521
lfemur 3.50159 0.0517948 -10.2204
ltibia 60.2749
lfoot -13.1708 27.187
ltoes -15.5488
1465
root -5.42651 14.6286 -11.664 179.089 -20.2194 179.345
lowerback 20.6571 3.6568 -7.89199
upperback 0.838084 2.92367 1.52025
thorax -11.1966 1.74527 5.34564
lowerneck -5.02626 -7.99113 -10.8414
upperneck 5.45591 -10.5863 9.45325
head 3.52508 -5.1695 4.04939
rclavicle 2.02512e-014 -1.03368e-014
rhumerus 46.8874 14.3479 -38.0828
rradius 44.9023
rwrist -24.5285
rhand -2.42797 -51.8638
rfingers 7.12502
rthumb 23.2629 -80.4786
lclavicle 2.02512e-014 -1.03368e-014
lhumerus -48.1076 -21.8834 103.761
lradius 117.715
lwrist -42.9866
lhand 43.0861 11.5589
lfingers 7.12502
lthumb 64.8987 -701.096
rfemur -69.7617 -11.4859 14.3891
rtibia 66.4294
rfoot -0.0848235 18.3256
rtoes -18.4641
lfemur 0.681741 -1.2195 -10.007
ltibia 65.6771
lfoot -11.3288 25.6552
ltoes -8.11076
1466
root -5.36903 14.5218 -11.8468 179.312 -20.8365 179.833
lowerback 20.7215 3.0208 -7.44242
upperback 0.763429 2.22496 1.82879
thorax -11.1991 1.41153 5.65325
lowerneck -5.2177 -7.6371 -10.7536
upperneck 4.9211 -10.0034 8.90835
head 3.30324 -4.88849 3.91529
rclavicle -5.91136e-014 -6.16232e-015
rhumerus 46.5104 16.0076 -37.2526
rradius 50.7605
rwrist -36.2323
rhand -7.34791 -53.807
rfingers 7.12502
rthumb 18.5362 -82.9439
lclavicle -5.91136e-014 -6.16232e-015
lhumerus -44.3299 -24.7113 104.023
lradius 118.652
lwrist -39.1497
lhand 39.8352 16.502
lfingers 7.12502
lthumb 62.2584 -692.33
rfemur -66.5423 -9.66438 13.9083
rtibia 62.3865
rfoot 3.20844 18.1449
rtoes -17.3215
lfemur -2.51431 -2.34954 -9.71413
ltibia 71.4057
lfoot -11.6171 23.396
ltoes -6.28236
1467
root -5.30937 14.3991 -12.0296 179.431 -21.6778 180.423
lowerback 20.8596 2.38033 -6.776
upperback 0.717354 1.5632 2.15406
thorax -11.2111 1.07965 5.84128
lowerneck -5.07069 -7.43726 -10.2086
upperneck 3.99839 -9.65797 7.93039
head 2.89202 -4.737 3.57995
rclavicle -3.34704e-014 -1.41137e-014
rhumerus 46.1006 17.482 -36.3858
rradius 57.1953
rwrist -46.3504
rhand -12.2561 -54.9248
rfingers 7.12502
rthumb 13.8102 -84.4464
lclavicle -3.34704e-014 -1.41137e-014
lhumerus -40.123 -28.3348 103.852
lradius 119.303
lwrist -36.1972
lhand 33.7357 20.7904
lfingers 7.12502
lthumb 57.0305 -682.649
rfemur -63.5872 -7.99939 13.7686
rtibia 59.1267
rfoot 5.93079 17.3617
rtoes -14.9249
lfemur -5.90973 -3.19259 -9.29546
ltibia 77.2565
lfoot -12.7189 22.0351
ltoes -8.87671
1468
root -5.25179 14.2735 -12.213 179.482 -22.6732 180.83
lowerback 21.0953 1.80076 -6.12942
upperback 0.740937 0.95864 2.42847
thorax -11.2125 0.766431 5.96557
lowerneck -5.13673 -7.11112 -10.162
upperneck 3.35314 -9.1653 7.64632
head 2.64899 -4.49624 3.5278
rclavicle -6.54499e-014 1.5704e-014
rhumerus 45.746 18.646 -35.6296
rradius 63.4017
rwrist -52.5048
rhand -14.2255 -53.5359
rfingers 7.12502
rthumb 11.9117 -83.1771
lclavicle -6.54499e-014 1.5704e-014
lhumerus -35.2083 -32.5397 102.979
lradius 119.432
lwrist -34.0775
lhand 26.1468 22.7729
lfingers 7.12502
lthumb 50.2119 -676.116
rfemur -60.9835 -6.61184 13.7839
rtibia 57.0954
rfoot 7.22475 16.8593
rtoes -7.99487
lfemur -9.34225 -3.70768 -9.18848
ltibia 82.8902
lfoot -13.6338 20.3949
ltoes -9.3272
1469
root -5.18873 14.1276 -12.3897 179.595 -23.84 181.294
lowerback 21.1918 1.28872 -5.41836
upperback 0.780243 0.4784 2.8093
thorax -11.144 0.50675 6.13315
lowerneck -4.93396 -6.91264 -9.92077
upperneck 2.36496 -8.85197 6.69892
head 2.49273 -4.37529 3.61608
rclavicle 1.20762e-014 -4.77083e-015
rhumerus 45.7117 19.8846 -34.2815
rradius 69.1759
rwrist -53.7411
rhand -13.7792 -51.3407
rfingers 7.12502
rthumb 12.342 -80.9565
lclavicle 1.20762e-014 -4.77083e-015
lhumerus -29.2914 -36.9771 101.378
lradius 118.754
lwrist -32.6448
lhand 18.888 24.4052
lfingers 7.12502
lthumb 43.4978 -671.527
rfemur -59.0832 -5.68655 14.4513
rtibia 56.6187
rfoot 2.46102 20.1603
rtoes 17.153
lfemur -13.1759 -3.75196 -9.05714
ltibia 88.5492
lfoot -13.8724 20.1001
ltoes -9.83647
